<mxfile host="Electron" modified="2024-04-18T18:52:18.767Z" agent="Mozilla/5.0 (Windows NT 10.0; Win64; x64) AppleWebKit/537.36 (KHTML, like Gecko) draw.io/23.1.5 Chrome/120.0.6099.109 Electron/28.1.0 Safari/537.36" etag="y8SOCJ19-c6V_RWc48bs" version="23.1.5" type="device">
  <diagram name="Pagina-1" id="2E39NDmfMYuv_2c8OxZy">
    <mxGraphModel dx="989" dy="577" grid="1" gridSize="10" guides="1" tooltips="1" connect="1" arrows="1" fold="1" page="1" pageScale="1" pageWidth="827" pageHeight="1169" math="0" shadow="0">
      <root>
        <mxCell id="0" />
        <mxCell id="1" parent="0" />
        <mxCell id="Nw_TqqoXpFTvkcw81iQf-3" value="c&lt;span style=&quot;font-style: normal;&quot;&gt;=&lt;/span&gt;b &lt;span style=&quot;font-style: normal;&quot;&gt;@ 0&lt;/span&gt;" style="ellipse;whiteSpace=wrap;html=1;fontSize=18;fontFamily=Computer modern;fontStyle=2;fillColor=#d5e8d4;strokeColor=#82b366;" vertex="1" parent="1">
          <mxGeometry x="380" y="270" width="100" height="40" as="geometry" />
        </mxCell>
        <mxCell id="Nw_TqqoXpFTvkcw81iQf-4" value="h&lt;span style=&quot;font-style: normal;&quot;&gt;(&lt;/span&gt;a&lt;span style=&quot;font-style: normal;&quot;&gt;)&amp;nbsp;≠ &lt;/span&gt;h&lt;span style=&quot;font-style: normal;&quot;&gt;(&lt;/span&gt;c&lt;span style=&quot;font-style: normal;&quot;&gt;)&lt;/span&gt;&amp;nbsp;&lt;span style=&quot;font-style: normal;&quot;&gt;@ 1&lt;/span&gt;" style="ellipse;whiteSpace=wrap;html=1;fontSize=18;fontFamily=Computer modern;fontStyle=2;fillColor=#d5e8d4;strokeColor=#82b366;" vertex="1" parent="1">
          <mxGeometry x="400" y="350" width="140" height="40" as="geometry" />
        </mxCell>
        <mxCell id="Nw_TqqoXpFTvkcw81iQf-5" value="a&lt;span style=&quot;font-style: normal;&quot;&gt; ≠ b&lt;/span&gt;&amp;nbsp;&lt;span style=&quot;font-style: normal;&quot;&gt;@ 1&lt;/span&gt;" style="ellipse;whiteSpace=wrap;html=1;fontSize=18;fontFamily=Computer modern;fontStyle=2" vertex="1" parent="1">
          <mxGeometry x="250" y="350" width="100" height="40" as="geometry" />
        </mxCell>
        <mxCell id="Nw_TqqoXpFTvkcw81iQf-6" value="a&lt;span style=&quot;font-style: normal;&quot;&gt; = d&lt;/span&gt;&amp;nbsp;&lt;span style=&quot;font-style: normal;&quot;&gt;@ 1&lt;/span&gt;" style="ellipse;whiteSpace=wrap;html=1;fontSize=18;fontFamily=Computer modern;fontStyle=2" vertex="1" parent="1">
          <mxGeometry x="350" y="470" width="100" height="40" as="geometry" />
        </mxCell>
        <mxCell id="Nw_TqqoXpFTvkcw81iQf-7" value="p&amp;nbsp;&lt;span style=&quot;font-style: normal;&quot;&gt;@ 1&lt;/span&gt;" style="ellipse;whiteSpace=wrap;html=1;fontSize=18;fontFamily=Computer modern;fontStyle=2" vertex="1" parent="1">
          <mxGeometry x="425" y="410" width="90" height="40" as="geometry" />
        </mxCell>
        <mxCell id="Nw_TqqoXpFTvkcw81iQf-8" value="k&amp;nbsp;&lt;span style=&quot;font-style: normal;&quot;&gt;@ 1&lt;/span&gt;" style="ellipse;whiteSpace=wrap;html=1;fontSize=18;fontFamily=Computer modern;fontStyle=2;fillColor=#f8cecc;strokeColor=#b85450;" vertex="1" parent="1">
          <mxGeometry x="220" y="450" width="90" height="40" as="geometry" />
        </mxCell>
        <mxCell id="Nw_TqqoXpFTvkcw81iQf-9" value="" style="endArrow=classic;html=1;rounded=0;exitX=0;exitY=1;exitDx=0;exitDy=0;" edge="1" parent="1" source="Nw_TqqoXpFTvkcw81iQf-3" target="Nw_TqqoXpFTvkcw81iQf-5">
          <mxGeometry width="50" height="50" relative="1" as="geometry">
            <mxPoint x="370" y="440" as="sourcePoint" />
            <mxPoint x="420" y="390" as="targetPoint" />
          </mxGeometry>
        </mxCell>
        <mxCell id="Nw_TqqoXpFTvkcw81iQf-10" value="" style="endArrow=classic;html=1;rounded=0;exitX=0;exitY=0.5;exitDx=0;exitDy=0;entryX=1;entryY=0.5;entryDx=0;entryDy=0;" edge="1" parent="1" source="Nw_TqqoXpFTvkcw81iQf-4" target="Nw_TqqoXpFTvkcw81iQf-5">
          <mxGeometry width="50" height="50" relative="1" as="geometry">
            <mxPoint x="405" y="314" as="sourcePoint" />
            <mxPoint x="318" y="362" as="targetPoint" />
          </mxGeometry>
        </mxCell>
        <mxCell id="Nw_TqqoXpFTvkcw81iQf-11" value="" style="endArrow=classic;html=1;rounded=0;exitX=0.5;exitY=1;exitDx=0;exitDy=0;entryX=0.5;entryY=0;entryDx=0;entryDy=0;" edge="1" parent="1" source="Nw_TqqoXpFTvkcw81iQf-4" target="Nw_TqqoXpFTvkcw81iQf-7">
          <mxGeometry width="50" height="50" relative="1" as="geometry">
            <mxPoint x="350" y="450" as="sourcePoint" />
            <mxPoint x="400" y="400" as="targetPoint" />
          </mxGeometry>
        </mxCell>
        <mxCell id="Nw_TqqoXpFTvkcw81iQf-12" value="" style="endArrow=classic;html=1;rounded=0;exitX=0.5;exitY=1;exitDx=0;exitDy=0;entryX=0;entryY=0;entryDx=0;entryDy=0;" edge="1" parent="1" source="Nw_TqqoXpFTvkcw81iQf-5" target="Nw_TqqoXpFTvkcw81iQf-6">
          <mxGeometry width="50" height="50" relative="1" as="geometry">
            <mxPoint x="310" y="470" as="sourcePoint" />
            <mxPoint x="360" y="420" as="targetPoint" />
          </mxGeometry>
        </mxCell>
        <mxCell id="Nw_TqqoXpFTvkcw81iQf-13" value="" style="endArrow=classic;html=1;rounded=0;exitX=0.5;exitY=1;exitDx=0;exitDy=0;entryX=1;entryY=0;entryDx=0;entryDy=0;" edge="1" parent="1" source="Nw_TqqoXpFTvkcw81iQf-7" target="Nw_TqqoXpFTvkcw81iQf-6">
          <mxGeometry width="50" height="50" relative="1" as="geometry">
            <mxPoint x="285" y="400" as="sourcePoint" />
            <mxPoint x="405" y="500" as="targetPoint" />
          </mxGeometry>
        </mxCell>
        <mxCell id="Nw_TqqoXpFTvkcw81iQf-14" value="" style="endArrow=classic;html=1;rounded=0;exitX=0;exitY=1;exitDx=0;exitDy=0;entryX=0.5;entryY=0;entryDx=0;entryDy=0;" edge="1" parent="1" source="Nw_TqqoXpFTvkcw81iQf-5" target="Nw_TqqoXpFTvkcw81iQf-8">
          <mxGeometry width="50" height="50" relative="1" as="geometry">
            <mxPoint x="285" y="400" as="sourcePoint" />
            <mxPoint x="405" y="500" as="targetPoint" />
          </mxGeometry>
        </mxCell>
        <mxCell id="Nw_TqqoXpFTvkcw81iQf-15" value="" style="endArrow=classic;html=1;rounded=0;exitX=0;exitY=0.5;exitDx=0;exitDy=0;entryX=0.957;entryY=0.756;entryDx=0;entryDy=0;entryPerimeter=0;" edge="1" parent="1" source="Nw_TqqoXpFTvkcw81iQf-6" target="Nw_TqqoXpFTvkcw81iQf-8">
          <mxGeometry width="50" height="50" relative="1" as="geometry">
            <mxPoint x="275" y="394" as="sourcePoint" />
            <mxPoint x="275" y="460" as="targetPoint" />
          </mxGeometry>
        </mxCell>
        <mxCell id="Nw_TqqoXpFTvkcw81iQf-16" value="" style="endArrow=none;dashed=1;html=1;rounded=0;fillColor=#dae8fc;strokeColor=#6c8ebf;strokeWidth=2;curved=1;" edge="1" parent="1">
          <mxGeometry width="50" height="50" relative="1" as="geometry">
            <mxPoint x="560" y="400" as="sourcePoint" />
            <mxPoint x="350" y="280" as="targetPoint" />
            <Array as="points">
              <mxPoint x="420" y="400" />
              <mxPoint x="390" y="390" />
              <mxPoint x="360" y="360" />
            </Array>
          </mxGeometry>
        </mxCell>
        <mxCell id="Nw_TqqoXpFTvkcw81iQf-17" value="&lt;font style=&quot;font-size: 16px;&quot; face=&quot;Computer modern&quot;&gt;(1UIP)&lt;/font&gt;" style="text;html=1;align=center;verticalAlign=middle;whiteSpace=wrap;rounded=0;" vertex="1" parent="1">
          <mxGeometry x="440" y="330" width="60" height="20" as="geometry" />
        </mxCell>
      </root>
    </mxGraphModel>
  </diagram>
</mxfile>
